<?xml version="1.0" standalone="no"?>
<!DOCTYPE svg PUBLIC "-//W3C//DTD SVG 20010904//EN"
 "http://www.w3.org/TR/2001/REC-SVG-20010904/DTD/svg10.dtd">
<svg version="1.0" xmlns="http://www.w3.org/2000/svg"
 width="67.000000pt" height="82.000000pt" viewBox="0 0 67.000000 82.000000"
 preserveAspectRatio="xMidYMid meet">

<g transform="translate(0.000000,82.000000) scale(0.100000,-0.100000)"
fill="#000000" stroke="none">
<path d="M280 580 l-55 -5 -6 -60 c-4 -33 -4 -97 -1 -142 l5 -83 33 0 34 0 0
-104 c0 -58 4 -108 10 -111 21 -13 180 244 180 292 0 9 -14 13 -40 13 -26 0
-40 5 -40 13 0 7 14 48 30 91 17 44 27 83 23 86 -11 11 -107 16 -173 10z"/>
</g>
</svg>
